<svg width="164" height="72" viewBox="0 0 164 72" fill="none" xmlns="http://www.w3.org/2000/svg">
<path d="M83.3237 71.25C83.3237 71.25 105.424 68.1219 126.424 64.9939C147.424 61.8659 167.424 58.7378 163.024 58.7378C141.324 58.7378 128.924 44.0244 118.124 29.311C107.324 14.5976 98.3237 0 83.3237 0C68.3237 0 59.2237 14.7134 48.4237 29.4268C37.6237 44.1402 25.3237 58.8537 3.6237 58.8537C-0.676299 58.8537 -2.8763 58.8537 7.1237 60.3598C17.1237 61.8659 39.2237 64.9939 83.3237 71.25Z" fill="white"/>
<path d="M82.8889 39.4978L73.3452 28.9437C72.8849 28.4347 72.8849 27.6095 73.3452 27.1005L74.4583 25.8695C74.9178 25.3614 75.6625 25.3604 76.1231 25.8674L83.7223 34.2317L91.3213 25.8674C91.7819 25.3604 92.5266 25.3614 92.9861 25.8695L94.0992 27.1005C94.5595 27.6095 94.5595 28.4347 94.0992 28.9437L84.5557 39.4978C84.0954 40.0068 83.3491 40.0068 82.8889 39.4978Z" fill="#888888"/>
</svg>
