<svg width="140" height="45" viewBox="0 0 140 45" fill="none" xmlns="http://www.w3.org/2000/svg">
<path d="M56.1378 19H58.9055V14.3594H60.9254L63.4055 19H66.4609L63.6804 13.9119C65.1697 13.2727 65.9943 11.9751 65.9943 10.1854C65.9943 7.58381 64.2749 5.90909 61.3026 5.90909H56.1378V19ZM58.9055 12.1349V8.17188H60.772C62.37 8.17188 63.1435 8.88139 63.1435 10.1854C63.1435 11.483 62.37 12.1349 60.7848 12.1349H58.9055ZM70.2067 19L71.1783 16.0149H75.902L76.8736 19H79.8395L75.3267 5.90909H71.7599L67.2408 19H70.2067ZM71.8814 13.8544L73.4922 8.90057H73.5945L75.2053 13.8544H71.8814ZM92.3647 5.90909H89.6097V14.142H89.4947L83.8441 5.90909H81.4151V19H84.1829V10.7607H84.2788L89.9741 19H92.3647V5.90909ZM106.202 10.4922C105.838 7.46875 103.549 5.73011 100.519 5.73011C97.0613 5.73011 94.4213 8.17188 94.4213 12.4545C94.4213 16.7244 97.0165 19.179 100.519 19.179C103.875 19.179 105.901 16.9482 106.202 14.5384L103.402 14.5256C103.14 15.9254 102.041 16.7308 100.564 16.7308C98.5762 16.7308 97.2275 15.2543 97.2275 12.4545C97.2275 9.73153 98.557 8.17827 100.583 8.17827C102.098 8.17827 103.191 9.05398 103.402 10.4922H106.202ZM108.187 19H110.954V13.5923H116.573V19H119.334V5.90909H116.573V11.3104H110.954V5.90909H108.187V19ZM133.646 12.4545C133.646 8.17188 130.987 5.73011 127.516 5.73011C124.026 5.73011 121.386 8.17188 121.386 12.4545C121.386 16.718 124.026 19.179 127.516 19.179C130.987 19.179 133.646 16.7372 133.646 12.4545ZM130.84 12.4545C130.84 15.2287 129.523 16.7308 127.516 16.7308C125.503 16.7308 124.192 15.2287 124.192 12.4545C124.192 9.6804 125.503 8.17827 127.516 8.17827C129.523 8.17827 130.84 9.6804 130.84 12.4545ZM60.7784 41C64.767 41 67.1832 38.5327 67.1832 34.4418C67.1832 30.3636 64.767 27.9091 60.8168 27.9091H56.1378V41H60.7784ZM58.9055 38.6286V30.2805H60.6697C63.1243 30.2805 64.4219 31.5334 64.4219 34.4418C64.4219 37.3629 63.1243 38.6286 60.6634 38.6286H58.9055ZM70.7516 41L71.7232 38.0149H76.4469L77.4185 41H80.3844L75.8716 27.9091H72.3049L67.7857 41H70.7516ZM72.4263 35.8544L74.0371 30.9006H74.1394L75.7502 35.8544H72.4263ZM86.1261 41H88.8938V37.2798L90.2553 35.6179L93.8413 41H97.1523L92.2369 33.7706L97.0948 27.9091H93.7773L89.0664 33.6811H88.8938V27.9091H86.1261V41ZM100.793 41L101.764 38.0149H106.488L107.46 41H110.425L105.913 27.9091H102.346L97.8267 41H100.793ZM102.467 35.8544L104.078 30.9006H104.18L105.791 35.8544H102.467ZM109.885 30.1911H113.893V41H116.629V30.1911H120.637V27.9091H109.885V30.1911ZM125.175 27.9091H122.407V41H125.175V27.9091ZM129.709 41L130.68 38.0149H135.404L136.376 41H139.341L134.829 27.9091H131.262L126.743 41H129.709ZM131.383 35.8544L132.994 30.9006H133.096L134.707 35.8544H131.383Z" fill="black"/>
<path d="M22.5 0C10.0736 0 0 10.0736 0 22.5C0 34.9264 10.0736 45 22.5 45C34.9264 45 45 34.9264 45 22.5C45 10.0736 34.9264 0 22.5 0ZM38.2587 10.8471L32.5068 16.599C31.51 14.9152 30.0871 13.4915 28.401 12.4932L34.1529 6.74129C35.7157 7.90084 37.0992 9.28429 38.2587 10.8471ZM22.5 31.2097C17.6898 31.2097 13.7903 27.3102 13.7903 22.5C13.7903 17.6898 17.6898 13.7903 22.5 13.7903C27.3102 13.7903 31.2097 17.6898 31.2097 22.5C31.2097 27.3102 27.3102 31.2097 22.5 31.2097ZM10.8471 6.74129L16.599 12.4932C14.9152 13.49 13.4915 14.9129 12.4932 16.599L6.74129 10.8471C7.90082 9.28427 9.28427 7.90082 10.8471 6.74129ZM6.74129 34.1529L12.4932 28.401C13.49 30.0848 14.9129 31.5085 16.599 32.5068L10.8471 38.2587C9.28429 37.0992 7.90084 35.7157 6.74129 34.1529ZM34.1529 38.2587L28.401 32.5068C30.0848 31.51 31.5085 30.0871 32.5068 28.401L38.2587 34.1529C37.0992 35.7157 35.7157 37.0992 34.1529 38.2587Z" fill="#F14E4E"/>
</svg>
